#!OML:ASF F:\VICON\USERDATA\INSTALL\rory3\rory3.ASF
:FULLY-SPECIFIED
:DEGREES
3327
root -5.17074 18.8208 0.375079 -381.327 -74.5068 383.031
lowerback 7.154 1.82557 -3.6208
upperback 0.422915 1.97292 -2.99951
thorax -3.59324 0.992623 -1.27188
lowerneck -7.67797 0.564857 -7.00186
upperneck -2.40546 1.24979 0.74036
head 0.493654 0.651028 1.4505
rclavicle 1.16786e-015 -2.92213e-014
rhumerus 90.9932 -25.0401 -59.6964
rradius 36.6761
rwrist -38.2086
rhand -37.8976 -6.8752
rfingers 7.12502
rthumb -10.9405 -36.5701
lclavicle 1.16786e-015 -2.92213e-014
lhumerus 75.4991 26.9076 39.7331
lradius 37.9072
lwrist 51.8768
lhand -12.7849 21.1593
lfingers 7.12502
lthumb 13.3006 50.7149
rfemur -11.1353 10.8838 19.2458
rtibia 44.0317
rfoot -13.0388 1.80459
rtoes -5.76486
lfemur -13.1596 -3.7396 -17.0043
ltibia 34.5299
lfoot -12.1346 -1.07396
ltoes -23.8598
3328
root -5.10961 18.819 0.373868 -381.22 -74.4811 382.852
lowerback 7.16121 1.79245 -3.69505
upperback 0.453334 1.93134 -2.85467
thorax -3.5728 0.974773 -1.07555
lowerneck -7.61037 0.604892 -6.91802
upperneck -2.50438 1.28812 0.623141
head 0.449801 0.66984 1.3973
rclavicle 5.41812e-014 3.37934e-015
rhumerus 90.7252 -24.7824 -59.2176
rradius 36.9793
rwrist -38.3613
rhand -37.7792 -5.9191
rfingers 7.12502
rthumb -10.8263 -35.6201
lclavicle 5.41812e-014 3.37934e-015
lhumerus 75.3342 26.9698 39.8959
lradius 37.8571
lwrist 51.9428
lhand -13.5241 22.2303
lfingers 7.12502
lthumb 12.588 51.831
rfemur -11.174 10.9503 19.2273
rtibia 43.895
rfoot -13.2918 1.73068
rtoes -6.63378
lfemur -13.1325 -2.90228 -17.0255
ltibia 35.6545
lfoot -13.2396 -0.310476
ltoes -22.4092
3329
root -5.04832 18.8206 0.371644 -381.017 -74.5029 382.516
lowerback 7.22329 1.80388 -3.67135
upperback 0.507477 1.95369 -2.72691
thorax -3.55507 0.986638 -0.959609
lowerneck -7.52645 0.654474 -6.78071
upperneck -2.56007 1.3356 0.507681
head 0.416931 0.692458 1.33584
rclavicle -5.09386e-016 4.57205e-015
rhumerus 90.0753 -24.7066 -58.3572
rradius 37.4653
rwrist -38.2656
rhand -37.9967 -5.98108
rfingers 7.12502
rthumb -11.036 -35.671
lclavicle -5.09386e-016 4.57205e-015
lhumerus 75.4333 26.8695 40.2849
lradius 37.6145
lwrist 51.6729
lhand -14.0458 22.6637
lfingers 7.12502
lthumb 12.0849 52.2947
rfemur -11.1505 11.0026 19.2852
rtibia 43.7396
rfoot -13.4319 1.39357
rtoes -7.65479
lfemur -13.0721 -1.93221 -17.0049
ltibia 36.8865
lfoot -13.8723 0.641661
ltoes -21.8319
3330
root -4.98865 18.8242 0.368867 -380.688 -74.4914 382.031
lowerback 7.28424 1.85569 -3.59534
upperback 0.55088 2.03066 -2.65822
thorax -3.54474 1.02418 -0.940009
lowerneck -7.60727 0.517675 -6.53973
upperneck -2.37571 1.14697 0.548522
head 0.496695 0.594212 1.30451
rclavicle 1.00138e-014 -3.18055e-015
rhumerus 89.2229 -24.8271 -57.4448
rradius 37.8723
rwrist -38.1471
rhand -37.7462 -5.85939
rfingers 7.12502
rthumb -10.7945 -35.562
lclavicle 1.00138e-014 -3.18055e-015
lhumerus 75.33 26.597 40.1733
lradius 37.5186
lwrist 51.6922
lhand -14.2832 22.5756
lfingers 7.12502
lthumb 11.856 52.22
rfemur -11.0731 11.0594 19.3578
rtibia 43.5513
rfoot -13.3181 1.54281
rtoes -6.54849
lfemur -13.0111 -0.722371 -16.941
ltibia 38.2214
lfoot -13.9109 1.49473
ltoes -22.4758
3331
root -4.93378 18.8315 0.368995 -380.706 -74.4278 381.839
lowerback 7.35803 1.86391 -3.66612
upperback 0.57494 2.03451 -2.60693
thorax -3.56549 1.02752 -0.849857
lowerneck -7.683 0.426713 -6.25136
upperneck -2.06578 1.01802 0.665245
head 0.61299 0.525433 1.29155
rclavicle -9.72802e-015 -3.598e-014
rhumerus 88.3365 -24.7855 -56.5412
rradius 38.1753
rwrist -38.089
rhand -37.6647 -5.37695
rfingers 7.12502
rthumb -10.7159 -35.0837
lclavicle -9.72802e-015 -3.598e-014
lhumerus 75.2334 26.3113 40.1734
lradius 37.3356
lwrist 51.8007
lhand -14.3748 22.4052
lfingers 7.12502
lthumb 11.7676 52.0546
rfemur -10.8926 11.0393 19.3021
rtibia 43.3505
rfoot -13.0191 1.94932
rtoes -4.85171
lfemur -12.8355 0.186759 -16.9878
ltibia 39.6181
lfoot -13.8272 1.78155
ltoes -21.9088
3332
root -4.88047 18.841 0.37166 -380.641 -74.3465 381.528
lowerback 7.40128 1.80259 -3.73922
upperback 0.642404 1.95024 -2.52783
thorax -3.52369 0.986467 -0.718102
lowerneck -7.80298 0.465709 -6.08196
upperneck -1.72663 1.07265 0.847266
head 0.739445 0.550229 1.32597
rclavicle 6.79844e-014 -1.49089e-014
rhumerus 87.636 -24.5838 -55.8142
rradius 38.4038
rwrist -37.8775
rhand -37.688 -5.68718
rfingers 7.12502
rthumb -10.7384 -35.3927
lclavicle 6.79844e-014 -1.49089e-014
lhumerus 75.2818 26.1932 40.2942
lradius 36.9388
lwrist 51.7833
lhand -14.3246 22.288
lfingers 7.12502
lthumb 11.8161 51.9347
rfemur -10.6583 11.095 19.277
rtibia 43.1329
rfoot -12.9667 1.99014
rtoes -4.42654
lfemur -12.6213 0.82741 -17.036
ltibia 41.0398
lfoot -13.5166 1.50892
ltoes -21.3833
3333
root -4.82594 18.8531 0.37389 -380.249 -74.223 380.961
lowerback 7.40547 1.72452 -3.73564
upperback 0.671978 1.85248 -2.43429
thorax -3.49661 0.938623 -0.612379
lowerneck -7.80225 0.482358 -5.95728
upperneck -1.50538 1.08948 1.00108
head 0.809381 0.558268 1.35609
rclavicle -8.17502e-015 6.95746e-015
rhumerus 86.9228 -24.4531 -55.0463
rradius 38.5903
rwrist -37.6609
rhand -37.5674 -6.22568
rfingers 7.12502
rthumb -10.622 -35.9372
lclavicle -8.17502e-015 6.95746e-015
lhumerus 75.3494 26.0431 40.3203
lradius 36.4466
lwrist 51.7639
lhand -14.2877 22.4572
lfingers 7.12502
lthumb 11.8517 52.1018
rfemur -10.5209 11.053 19.3174
rtibia 42.9048
rfoot -13.209 1.58275
rtoes -6.08475
lfemur -12.5134 1.34018 -17.048
ltibia 42.452
lfoot -12.7713 0.913908
ltoes -21.4515
